<?xml version="1.0" encoding="utf-8"?>
<!-- Generator: Adobe Illustrator 24.0.0, SVG Export Plug-In . SVG Version: 6.00 Build 0)  -->
<svg version="1.1" id="Layer_1" xmlns="http://www.w3.org/2000/svg" xmlns:xlink="http://www.w3.org/1999/xlink" x="0px" y="0px"
	 viewBox="0 0 128 128" style="enable-background:new 0 0 128 128;" xml:space="preserve">
<style type="text/css">
	.st0{fill:url(#SVGID_1_);}
	.st1{fill:#FFFFFF;}
</style>
<linearGradient id="SVGID_1_" gradientUnits="userSpaceOnUse" x1="-2462.5" y1="-488.5" x2="-2462.5" y2="-544.5" gradientTransform="matrix(2 0 0 -2 4989 -971)">
	<stop  offset="0" style="stop-color:#42D778"/>
	<stop  offset="0.996" style="stop-color:#34B171"/>
	<stop  offset="1" style="stop-color:#34B171"/>
</linearGradient>
<path class="st0" d="M120,62c0,30.9-25.1,56-56,56S8,92.9,8,62S33.1,6,64,6S120,31.1,120,62z"/>
<path class="st1" d="M64,97.8c-18.5,0-33.6-15-33.6-33.4c0-10,4.5-19.4,12.2-25.8c2.4-2,5.9-1.6,7.8,0.8c2,2.4,1.6,5.9-0.8,7.8
	c-5.2,4.3-8.2,10.5-8.2,17.1C41.6,76.7,51.7,86.6,64,86.6s22.4-10,22.4-22.2c0-6.6-1.8-11.8-5.2-15.3c-2.1-2.2-2-5.8,0.2-8
	c2.2-2.1,5.8-2,8,0.2c5.4,5.7,8.3,13.7,8.3,23.1C97.6,82.8,82.5,97.8,64,97.8z"/>
<path class="st1" d="M31.9,33.9l22.7-3.2c2.8-0.4,5.3,2,4.8,4.8l-3.2,22.7c-0.4,3.5-4.8,4.9-7.3,2.5L29.4,41.3
	C26.9,38.7,28.4,34.4,31.9,33.9z"/>
</svg>
