<?xml version="1.0" encoding="utf-8"?>
<!-- Generator: Adobe Illustrator 24.0.0, SVG Export Plug-In . SVG Version: 6.00 Build 0)  -->
<svg version="1.1" id="Layer_1" xmlns="http://www.w3.org/2000/svg" xmlns:xlink="http://www.w3.org/1999/xlink" x="0px" y="0px"
	 viewBox="0 0 256.3 128.2" style="enable-background:new 0 0 256.3 128.2;" xml:space="preserve">
<style type="text/css">
	.st0{fill:#FFFFFF;}
	.st1{fill:url(#SVGID_1_);}
	.st2{fill:url(#SVGID_2_);}
</style>
<g>
	<rect x="25.1" y="26.7" class="st0" width="79.7" height="72.8"/>
	
		<linearGradient id="SVGID_1_" gradientUnits="userSpaceOnUse" x1="8.08" y1="65.9" x2="120.08" y2="65.9" gradientTransform="matrix(1 0 0 -1 0 130)">
		<stop  offset="0" style="stop-color:#42D7D7"/>
		<stop  offset="0.996" style="stop-color:#42BED7"/>
	</linearGradient>
	<path class="st1" d="M64.1,8.1c-30.9,0-56,25.1-56,56s25.1,56,56,56s56-25.1,56-56S95,8.1,64.1,8.1z M61.3,74.5v16.7L30.5,61.9
		l30.8-29.3v16.7c29.4,0,36.3,21,36.3,41.8C89.1,80.4,81.6,74.5,61.3,74.5z"/>
</g>
<g>
	<rect x="153.2" y="26.7" class="st0" width="79.7" height="72.8"/>
	
		<linearGradient id="SVGID_2_" gradientUnits="userSpaceOnUse" x1="136.24" y1="65.9" x2="248.24" y2="65.9" gradientTransform="matrix(1 0 0 -1 0 130)">
		<stop  offset="0" style="stop-color:#D1D1D1"/>
		<stop  offset="0.996" style="stop-color:#C7C7C7"/>
	</linearGradient>
	<path class="st2" d="M192.2,8.1c-30.9,0-56,25.1-56,56s25.1,56,56,56s56-25.1,56-56S223.1,8.1,192.2,8.1z M189.4,74.5v16.7
		l-30.8-29.3l30.8-29.3v16.7c29.4,0,36.3,21,36.3,41.8C217.2,80.4,209.7,74.5,189.4,74.5z"/>
</g>
</svg>
